<?xml version="1.0" encoding="UTF-8"?>
<svg version="1.1" xmlns="http://www.w3.org/2000/svg" width="2084" height="2084">
<path d="M0 0 C687.72 0 1375.44 0 2084 0 C2084 687.72 2084 1375.44 2084 2084 C1396.28 2084 708.56 2084 0 2084 C0 1396.28 0 708.56 0 0 Z " fill="#FEFEFE" transform="translate(0,0)"/>
<path d="M0 0 C46.00190933 -0.06825114 92.00382193 -0.13216085 138.00576782 -0.16937256 C138.68670022 -0.16992479 139.36763262 -0.17047702 140.06919934 -0.17104598 C154.86798744 -0.18301784 169.66677608 -0.19409853 184.46556552 -0.20426132 C191.72297479 -0.20925063 198.98038391 -0.21443685 206.23779297 -0.21972656 C206.95998924 -0.2202496 207.68218551 -0.22077263 208.42626652 -0.22131152 C231.83126518 -0.23835441 255.23622518 -0.26839777 278.64120042 -0.30518888 C302.69450527 -0.34293042 326.74778873 -0.36754437 350.80112269 -0.37565996 C354.19912727 -0.37681257 357.59713177 -0.37811511 360.99513626 -0.37950897 C361.99829216 -0.37991351 361.99829216 -0.37991351 363.02171384 -0.38032622 C373.11712811 -0.38475898 383.21248311 -0.40071829 393.30787277 -0.42292023 C404.7956567 -0.44809289 416.28335336 -0.4598855 427.77116518 -0.45400551 C433.63360156 -0.45144066 439.49584387 -0.45540405 445.35824585 -0.4768219 C450.72633237 -0.49629067 456.09409436 -0.49726763 461.46219583 -0.48359558 C463.40314806 -0.48190586 465.34412056 -0.4869771 467.28503291 -0.49953273 C488.93024755 -0.63140104 488.93024755 -0.63140104 495.91571462 5.75007415 C500.95183993 11.11406233 502.24920164 16.03412465 502.26069641 23.36315918 C502.26452196 24.09485935 502.26834751 24.82655951 502.27228898 25.58043242 C502.28259024 28.02700243 502.27863236 30.4733365 502.2746582 32.91992188 C502.27900622 34.67607337 502.28418967 36.43222297 502.29014587 38.18836975 C502.30353615 42.95480768 502.3041146 47.72116632 502.30158257 52.4876194 C502.30051308 56.46641602 502.30539559 60.44519659 502.310188 64.42398977 C502.32128286 73.80920201 502.32172042 83.19437422 502.31567383 92.57958984 C502.30963042 102.26411809 502.32195442 111.94850118 502.3432439 121.63300467 C502.36084978 129.94734928 502.36686293 138.26164765 502.36360615 146.57601023 C502.36179184 151.54208225 502.36444438 156.50805068 502.37832069 161.47410583 C502.39087826 166.14283735 502.38897461 170.81134216 502.37590981 175.48007011 C502.37354011 177.19373589 502.37629276 178.90741753 502.38453293 180.62106514 C502.39496887 182.95992132 502.38692571 185.29801234 502.3742218 187.63684082 C502.37447341 189.60019756 502.37447341 189.60019756 502.37473011 191.60321808 C501.94213917 195.52448584 500.80816868 198.19183132 498 201 C494.6875 201.375 494.6875 201.375 491 201 C486.82066138 196.93064398 485.91867451 193.27311378 485.5703125 187.6171875 C485.49901123 186.54130371 485.42770996 185.46541992 485.35424805 184.35693359 C485.27859619 183.20789551 485.20294434 182.05885742 485.125 180.875 C484.42599984 171.19724712 483.43870858 161.78214634 481.46386719 152.28515625 C480.93403402 149.67503073 480.45603798 147.05733274 479.9765625 144.4375 C475.02013711 118.13130982 465.89491339 90.85550592 450 69 C449.2884375 67.99582031 448.576875 66.99164062 447.84375 65.95703125 C429.37536306 40.53520847 404.90130738 23.54778302 373.62168121 18.4371376 C366.62764434 17.59295604 359.60756564 17.69000108 352.57324219 17.68115234 C350.81962248 17.67172445 349.06600719 17.66144291 347.312397 17.6503849 C342.64934408 17.62330585 337.98632232 17.60779069 333.32321167 17.59480286 C328.93499674 17.58079047 324.54686513 17.5561731 320.15869141 17.5324707 C307.35584195 17.46941502 294.55291393 17.42322061 281.75 17.375 C253.1225 17.25125 224.495 17.1275 195 17 C195 120.29 195 223.58 195 330 C257.90995818 336.53657317 257.90995818 336.53657317 327 315 C327.67804688 314.41476562 328.35609375 313.82953125 329.0546875 313.2265625 C334.52521874 308.16890154 337.81324596 302.68695929 341 296 C341.49242187 295.030625 341.98484375 294.06125 342.4921875 293.0625 C349.0325973 279.23614146 351.68476576 263.92409902 354.5703125 248.99609375 C354.70097107 248.32434113 354.83162964 247.6525885 354.96624756 246.96047974 C355.60308693 243.67706406 356.22375713 240.39267134 356.8203125 237.1015625 C359.59945157 222.40054843 359.59945157 222.40054843 365 217 C368 217.1875 368 217.1875 371 218 C373.02546936 221.03820403 373.25030239 221.60576573 373.25447559 225.00964165 C373.26030779 225.82764586 373.26613998 226.64565008 373.27214891 227.4884423 C373.26836958 228.38677508 373.26459026 229.28510786 373.26069641 230.21066284 C373.26452196 231.16524954 373.26834751 232.11983624 373.27228898 233.1033498 C373.28264424 236.31618825 373.27862202 239.52884882 373.2746582 242.74169922 C373.2790033 245.03942023 373.28418577 247.33713979 373.29014587 249.63485718 C373.30356945 255.88689823 373.30411077 262.13887895 373.30158257 268.39093161 C373.30051505 273.60483449 373.30539066 278.81872506 373.310188 284.03262532 C373.32193064 297.03467713 373.32105149 310.03669447 373.31463119 323.03874852 C373.30946275 334.33223613 373.32071434 345.62563747 373.33972941 356.91910802 C373.35909918 368.51203378 373.36707369 380.10491502 373.36360615 391.69785702 C373.36179025 398.20766848 373.36446001 404.71740093 373.37832069 411.22719955 C373.390866 417.34865961 373.38898615 423.46994666 373.37590981 429.59140396 C373.37353721 431.84043688 373.37630302 434.08948186 373.38453293 436.33850098 C373.39494429 439.40432662 373.38694464 442.46956572 373.3742218 445.53536987 C373.38159609 446.42924121 373.38897037 447.32311254 373.39656812 448.24407089 C373.35540658 452.94604633 373.15186506 456.23173722 370 460 C367.5625 460.625 367.5625 460.625 365 460 C358.081597 453.69204432 357.23844949 442.66972006 355.6875 433.9375 C348.63430328 392.00303766 348.63430328 392.00303766 323.65625 359.3203125 C288.18868116 336.76024498 227.17453546 347.34596275 195 347 C195 463.16 195 579.32 195 699 C225.03 699 255.06 699 286 699 C286 704.61 286 710.22 286 716 C191.95 716 97.9 716 1 716 C1 710.39 1 704.78 1 699 C30.7 699 60.4 699 91 699 C91 473.94 91 248.88 91 17 C60.97 17 30.94 17 0 17 C0 11.39 0 5.78 0 0 Z " fill="#000000" transform="translate(467,633)"/>
<path d="M0 0 C95.04 0 190.08 0 288 0 C288 5.61 288 11.22 288 17 C256.32 17 224.64 17 192 17 C195.3 26.24 198.6 35.48 202 45 C204.07684661 51.03984977 206.14161756 57.08141911 208.171875 63.13671875 C208.70201279 64.71114123 209.23240097 66.28547942 209.76301575 67.85974121 C210.86521492 71.13115843 211.96598795 74.40304983 213.06546021 77.67538452 C215.65298408 85.37615665 218.24859194 93.07420614 220.84324837 100.77257729 C221.69237036 103.29217876 222.54120488 105.81187694 223.38999939 108.33158875 C227.42005722 120.29296896 231.47341638 132.24615426 235.5625 144.1875 C235.95692291 145.33969528 235.95692291 145.33969528 236.35931396 146.51516724 C237.41053146 149.58596096 238.46176705 152.65674847 239.51330566 155.72743225 C243.15070086 166.35421858 246.76108053 176.99021325 250.375 187.625 C251.81896471 191.87371345 253.26299003 196.1224063 254.70703125 200.37109375 C255.06455475 201.42303925 255.42207825 202.47498474 255.79043579 203.55880737 C259.54426748 214.60290438 263.30291789 225.64535943 267.0625 236.6875 C267.5545694 238.13277069 267.5545694 238.13277069 268.05657959 239.60723877 C269.70969971 244.46262547 271.36288759 249.31798909 273.01611328 254.17333984 C276.01081463 262.96858054 279.00487638 271.76403897 281.99899292 280.55947876 C283.6659697 285.45632788 285.33298687 290.35316325 287 295.25 C287.66666686 297.20833327 288.33333353 299.1666666 289 301.125 C289.33 302.094375 289.66 303.06375 290 304.0625 C341.00000002 453.87500005 341.00000002 453.87500005 341.99987793 456.81214905 C342.66694529 458.77165433 343.33401887 460.73115751 344.00109863 462.69065857 C345.66168545 467.56854375 347.3221664 472.44646492 348.98242188 477.32446289 C352.05477045 486.350975 355.12810994 495.37714576 358.20507812 504.40208435 C372.73640646 547.02378403 372.73640646 547.02378403 379 566 C384.2771947 549.6295243 389.52389336 533.24935735 394.75558472 516.86428833 C395.41160715 514.80977144 396.06779256 512.75530659 396.72415161 510.70089722 C401.05898366 497.13804412 401.05898366 497.13804412 405.31640625 483.55078125 C409.26031926 470.85649222 413.40228327 458.22362095 417.49523926 445.57678223 C418.63078475 442.06762428 419.76558318 438.5582248 420.90039062 435.04882812 C421.35124691 433.6545918 421.80210344 432.26035555 422.25296021 430.86611938 C422.47601963 430.17631611 422.69907906 429.48651283 422.92889786 428.77580643 C423.60692615 426.67908693 424.28501146 424.58238589 424.96310425 422.48568726 C432.01136945 400.69123116 439.04406538 378.89199818 446.01721191 357.07336426 C449.13016901 347.33855855 452.25357392 337.60709268 455.375 327.875 C455.92859695 326.1488446 455.92859695 326.1488446 456.49337769 324.38781738 C461.18398596 309.76321109 465.87858467 295.1399415 470.60498047 280.52685547 C473.35136461 272.03100716 476.07341294 263.52746106 478.79350281 255.02316284 C482.64810959 242.97188521 486.51067193 230.92316351 490.375 218.875 C490.933582 217.13339096 490.933582 217.13339096 491.50344849 215.3565979 C496.00456335 201.32363969 500.50946854 187.29197824 505.04248047 173.26928711 C507.79125548 164.76136478 510.52471997 156.24860189 513.25390625 147.734375 C514.83553739 142.80195493 516.41762492 137.86968145 518 132.9375 C518.3939093 131.70952698 518.7878186 130.48155396 519.19366455 129.21636963 C524.00749873 114.21691404 528.83650614 99.22488939 533.91992188 84.31420898 C536.8752368 75.59366459 539.39307678 66.86353895 542 58 C546.29 44.47 550.58 30.94 555 17 C524.97 17 494.94 17 464 17 C464 11.39 464 5.78 464 0 C527.03 0 590.06 0 655 0 C655 5.61 655 11.22 655 17 C629.59 17 604.18 17 578 17 C577.34 19.97 576.68 22.94 576 26 C575.55855799 27.57729883 575.09447146 29.14879714 574.58984375 30.70703125 C574.32703613 31.52574707 574.06422852 32.34446289 573.79345703 33.18798828 C573.51099121 34.05407715 573.22852539 34.92016602 572.9375 35.8125 C572.48286377 37.22378174 572.48286377 37.22378174 572.01904297 38.66357422 C571.3615092 40.70381894 570.70226998 42.74351466 570.04150391 44.78271484 C568.60354837 49.22466938 567.17802688 53.67058683 565.75146484 58.11621094 C564.60288323 61.69389082 563.45208624 65.27085189 562.30078125 68.84765625 C560.83692938 73.39620644 559.37576031 77.94559775 557.91796875 82.49609375 C553.82942895 95.25180084 549.70325468 107.99468129 545.55020142 120.72949219 C539.37587186 139.66331653 533.23887079 158.60907817 527.125 177.5625 C526.80388559 178.55796467 526.80388559 178.55796467 526.47628403 179.57353973 C520.30475339 198.70720791 514.15976724 217.84923523 508.04156494 237.00003052 C502.39360993 254.67723115 496.70238183 272.34030496 491 290 C484.68579635 309.55530438 478.38699528 329.11539568 472.125 348.6875 C471.64039307 350.20162476 471.64039307 350.20162476 471.14599609 351.74633789 C467.75795146 362.33419577 464.38552482 372.92675725 461.04234314 383.52886963 C453.0426342 408.89617365 444.85897582 434.20674865 436.65234375 459.5078125 C436.4235125 460.21331112 436.19468124 460.91880974 435.95891571 461.6456871 C435.0159304 464.552809 434.0728649 467.45990487 433.12972832 470.36697769 C425.33271641 494.40059227 417.55540689 518.43998825 409.87155151 542.5100708 C404.49527821 559.35091888 399.07796731 576.17830619 393.64547348 593.00107956 C382.42668179 627.74374943 371.24656257 662.49873793 360.25 697.3125 C360.00660889 698.08287598 359.76321777 698.85325195 359.51245117 699.64697266 C356.6369405 708.75325105 353.79736349 717.86935327 351 727 C344.4 727 337.8 727 331 727 C322.75254399 702.9091117 314.54624725 678.80433718 306.375 654.6875 C306.14673145 654.01379616 305.91846291 653.34009232 305.68327713 652.64597321 C300.33502461 636.85967087 295.00012221 621.06926526 289.75 605.25 C285.24871853 591.68735715 280.66814134 578.15254988 276.0625 564.625 C275.71075714 563.59183655 275.35901428 562.5586731 274.99661255 561.49420166 C274.27275707 559.36813143 273.54889527 557.24206335 272.82502747 555.11599731 C272.27355293 553.49623489 272.27355293 553.49623489 271.7109375 551.84375 C271.14961372 550.19510452 271.14961372 550.19510452 270.57695007 548.51315308 C265.76873615 534.3877478 260.97604659 520.25708272 256.1875 506.125 C255.96129345 505.45748215 255.7350869 504.78996429 255.5020256 504.10221863 C249.93790506 487.68211846 244.39539556 471.25534123 238.93661499 454.79986572 C234.5441975 441.56283513 230.04437755 428.36330493 225.53109741 415.16705322 C221.02404558 401.98706217 216.58891518 388.78565142 212.21337891 375.56149292 C207.99532194 362.8293874 203.57065884 350.17542907 199.10522461 337.52828979 C194.60021988 324.75296533 190.32964701 311.91845699 186.203125 299.01638794 C182.24608461 286.65836531 178.0263219 274.41159401 173.67697144 262.18667603 C169.31789002 249.92015262 165.2264405 237.58608727 161.26025391 225.1875 C157.53349928 213.55275386 153.59509595 202.0100145 149.5 190.5 C144.86160125 177.46293384 140.47621999 164.36691608 136.26025391 151.1875 C132.53349928 139.55275386 128.59509595 128.0100145 124.5 116.5 C119.86527438 103.47325784 115.48251609 90.38785133 111.27032471 77.21871948 C106.12722493 61.1603692 100.57134348 45.255936 94.90231323 29.3764801 C93.55500897 25.59707486 92.26924184 21.80772553 91 18 C60.97 17.67 30.94 17.34 0 17 C0 11.39 0 5.78 0 0 Z " fill="#010101" transform="translate(1018,625)"/>
<path d="M0 0 C2.375 0.875 2.375 0.875 4.375 3.875 C4.62668228 6.27605247 4.62668228 6.27605247 4.62896729 9.17538452 C4.63460693 10.2745369 4.64024658 11.37368927 4.64605713 12.50614929 C4.63998444 14.31560783 4.63998444 14.31560783 4.63378906 16.16162109 C4.63904602 18.06680763 4.63904602 18.06680763 4.64440918 20.01048279 C4.65353591 23.4961056 4.64998731 26.98161017 4.64365101 30.46723509 C4.63859029 34.11509236 4.64328287 37.76293945 4.64642334 41.41079712 C4.6500637 47.53918272 4.64526303 53.66752015 4.63574219 59.79589844 C4.62486719 66.87762107 4.62837595 73.95922845 4.639395 81.04094827 C4.64847748 87.121726 4.64974816 93.20246908 4.64451766 99.2832514 C4.64140199 102.91464667 4.64097733 106.54598783 4.64759064 110.17737961 C4.65445207 114.22818548 4.64493562 118.27879352 4.63378906 122.32958984 C4.63783752 123.53184708 4.64188599 124.73410431 4.64605713 125.97279358 C4.64041748 127.0775856 4.63477783 128.18237762 4.62896729 129.32064819 C4.62783621 130.75694863 4.62783621 130.75694863 4.62668228 132.22226524 C4.35445326 135.09156296 3.56824506 137.26468536 2.375 139.875 C-0.9375 140.125 -0.9375 140.125 -4.625 139.875 C-7.36365663 137.07629925 -8.12989403 134.5576508 -8.765625 130.75390625 C-8.94520752 129.74642334 -9.12479004 128.73894043 -9.30981445 127.70092773 C-9.5895813 126.08553101 -9.5895813 126.08553101 -9.875 124.4375 C-16.21299006 90.67640688 -31.17804474 57.90059667 -60.00537109 37.59448242 C-89.37813248 17.53173377 -123.03505308 12.82818421 -157.86328125 18.90625 C-174.83013367 22.20356242 -191.04037496 29.06747037 -204.625 39.875 C-205.45386719 40.52855469 -206.28273438 41.18210937 -207.13671875 41.85546875 C-222.49600206 54.76855686 -231.31081014 73.12318659 -233.625 92.875 C-234.90133641 114.18303141 -231.60251918 134.80478556 -217.1875 151.4375 C-205.40397902 163.44221335 -191.16827404 169.34744836 -175.625 175.0625 C-174.87300323 175.34057495 -174.12100647 175.6186499 -173.34622192 175.90515137 C-146.77782132 185.69608934 -119.61958053 193.2968599 -92.23278809 200.4085083 C-83.31243112 202.72954461 -74.45080727 205.21851586 -65.625 207.875 C-64.77760254 208.1239502 -63.93020508 208.37290039 -63.05712891 208.62939453 C-44.31398927 214.19077517 -26.6622251 222.18734132 -11.625 234.875 C-10.4184375 235.85726563 -10.4184375 235.85726563 -9.1875 236.859375 C14.51305873 256.87673879 26.36213171 288.68665756 29.1640625 318.87109375 C30.78142206 341.90349186 29.41231098 364.80343376 22.375 386.875 C22.15392578 387.57206055 21.93285156 388.26912109 21.70507812 388.98730469 C13.29239911 414.94349725 -0.51950048 437.49180426 -19.625 456.875 C-20.45 457.71289062 -21.275 458.55078125 -22.125 459.4140625 C-49.5766258 485.77766654 -87.92123458 500.06483135 -125.64916992 500.06030273 C-127.65873295 500.06246899 -129.66825708 500.08092114 -131.67773438 500.09960938 C-144.4882306 500.11845758 -156.89684896 498.75804926 -169.25 495.3125 C-170.17385498 495.05637939 -171.09770996 494.80025879 -172.04956055 494.53637695 C-182.3067896 491.56481913 -191.99485048 487.45949915 -201.625 482.875 C-202.38151855 482.51535156 -203.13803711 482.15570312 -203.91748047 481.78515625 C-218.40508384 474.77409359 -231.6221804 465.68408122 -243.7421875 455.10546875 C-244.67417969 454.49638672 -244.67417969 454.49638672 -245.625 453.875 C-249.26896702 455.08965567 -249.7599018 456.14709194 -251.84765625 459.29296875 C-252.46390869 460.21150635 -253.08016113 461.13004395 -253.71508789 462.07641602 C-254.69143188 463.55452759 -254.69143188 463.55452759 -255.6875 465.0625 C-257.04073306 467.07614856 -258.39490075 469.08916934 -259.75 471.1015625 C-260.41128906 472.08801758 -261.07257812 473.07447266 -261.75390625 474.09082031 C-264.1993894 477.72968902 -266.66992521 481.3481705 -269.1875 484.9375 C-269.91066406 485.98035156 -270.63382813 487.02320313 -271.37890625 488.09765625 C-274.36531159 491.79041137 -277.47887392 495.47572073 -282.3125 496.375 C-285.07593195 495.7775012 -285.9894333 495.16479339 -287.625 492.875 C-288.6604701 489.667789 -288.75523089 486.6975461 -288.76544189 483.34046936 C-288.77115204 482.21469986 -288.77686218 481.08893036 -288.78274536 479.92904663 C-288.78386322 478.698284 -288.78498108 477.46752136 -288.78613281 476.19946289 C-288.79109772 474.89993179 -288.79606262 473.6004007 -288.80117798 472.26148987 C-288.81427787 468.69952164 -288.82074185 465.13757224 -288.82518864 461.5755837 C-288.82812237 459.34965147 -288.83222768 457.12372437 -288.83669281 454.89779472 C-288.85035943 447.93153567 -288.860031 440.96528835 -288.8638947 433.99901682 C-288.86837797 425.96033095 -288.88594169 417.92181491 -288.9148953 409.88318068 C-288.93650892 403.66650928 -288.94659876 397.44988569 -288.94793582 391.23317713 C-288.94898379 387.52126591 -288.95489014 383.80951452 -288.97275543 380.0976429 C-288.99229181 375.95830079 -288.98794846 371.81931473 -288.98144531 367.67993164 C-288.99526749 365.83682404 -288.99526749 365.83682404 -289.0093689 363.95648193 C-289.00379974 362.82789261 -288.99823059 361.69930328 -288.99249268 360.53651428 C-288.99395924 359.55815644 -288.9954258 358.5797986 -288.9969368 357.57179356 C-288.56036686 354.40636602 -287.42213335 352.48626917 -285.625 349.875 C-279.14068598 350.36438219 -279.14068598 350.36438219 -277.03515625 352.44921875 C-275.18937024 355.62437973 -274.30814181 358.91655238 -273.375 362.4375 C-269.00373055 377.97361489 -263.31636591 392.68004873 -255.625 406.875 C-255.04878906 407.94363281 -254.47257813 409.01226563 -253.87890625 410.11328125 C-249.72846905 417.50355164 -244.91923421 424.2653024 -239.625 430.875 C-239.18027344 431.43477539 -238.73554687 431.99455078 -238.27734375 432.57128906 C-219.12945672 456.45281111 -191.73104503 475.12894939 -161.625 481.875 C-160.40941406 482.15859375 -159.19382812 482.4421875 -157.94140625 482.734375 C-139.95220435 486.77004781 -119.69185399 488.25995406 -101.625 483.875 C-100.86300293 483.69195313 -100.10100586 483.50890625 -99.31591797 483.3203125 C-86.93579914 480.27174058 -75.68363939 476.23585588 -64.625 469.875 C-63.11873047 469.00875 -63.11873047 469.00875 -61.58203125 468.125 C-37.41626891 453.40058627 -20.50048954 430.50993183 -13.40234375 403.18359375 C-13.01755859 401.54583984 -13.01755859 401.54583984 -12.625 399.875 C-12.39941406 398.93785156 -12.17382812 398.00070312 -11.94140625 397.03515625 C-7.00067636 372.74039479 -12.08675302 346.07976534 -24.625 324.875 C-40.99547086 301.901886 -77.08356805 292.3018533 -102.625 283.875 C-103.30733704 283.64983704 -103.98967407 283.42467407 -104.69268799 283.19268799 C-120.96544243 277.82817795 -137.26172415 272.53688183 -153.6171875 267.4296875 C-197.67635032 253.66336014 -241.62539084 238.38114365 -264.8125 195.41015625 C-280.35191477 165.10159943 -282.29018963 129.15230684 -271.9375 96.75 C-259.43445587 60.16026736 -232.9187572 32.75910452 -198.61474609 15.88623047 C-177.82287591 6.02840818 -154.33982696 2.44906226 -131.5 2.625 C-130.42082809 2.62965271 -130.42082809 2.62965271 -129.31985474 2.63439941 C-111.90569057 2.72215371 -95.36609146 3.90921369 -78.625 8.875 C-77.94856445 9.06513672 -77.27212891 9.25527344 -76.57519531 9.45117188 C-63.34926175 13.2053922 -51.40954048 19.1842603 -39.24511719 25.51660156 C-35.72415849 27.34204083 -32.17732005 29.1114967 -28.625 30.875 C-27.50716017 29.45229477 -26.38936052 28.02955795 -25.27172852 26.60668945 C-24.28980344 25.35731013 -23.30720641 24.10845864 -22.32397461 22.86010742 C-19.72880216 19.56320233 -17.14511982 16.2585353 -14.5859375 12.93359375 C-14.09971924 12.30533691 -13.61350098 11.67708008 -13.11254883 11.02978516 C-12.18112317 9.82564981 -11.25369491 8.61840892 -10.33081055 7.40771484 C-4.41836162 -0.21039817 -4.41836162 -0.21039817 0 0 Z " fill="#020202" transform="translate(1146.625,837.125)"/>
<path d="M0 0 C1.21945312 -0.020625 2.43890625 -0.04125 3.6953125 -0.0625 C4.87609375 -0.06765625 6.056875 -0.0728125 7.2734375 -0.078125 C8.34770996 -0.0874707 9.42198242 -0.09681641 10.52880859 -0.10644531 C14.15481983 0.31099487 16.52016767 1.35275683 19.625 3.25 C22.01105349 6.82908023 21.94760415 9.44831556 21.9609375 13.5859375 C21.9675943 14.30230377 21.9742511 15.01867004 21.98110962 15.75674438 C21.99122695 17.27139726 21.99592692 18.78609462 21.99560547 20.30078125 C21.99997188 22.61012891 22.03627729 24.91755384 22.07421875 27.2265625 C22.08008867 28.70051432 22.08405689 30.17447519 22.0859375 31.6484375 C22.10030853 32.33505463 22.11467957 33.02167175 22.12948608 33.72909546 C22.08433802 38.50289407 20.99268372 40.89643655 17.625 44.25 C13.13695526 46.49402237 7.06605378 45.55988449 2.0769043 45.60009766 C0.57251499 45.61664188 -0.9317962 45.64391251 -2.43579102 45.68212891 C-4.60995041 45.73706208 -6.78227022 45.7587937 -8.95703125 45.7734375 C-10.90959839 45.8031665 -10.90959839 45.8031665 -12.90161133 45.83349609 C-17.23455921 45.10560227 -18.65151423 43.61372826 -21.375 40.25 C-23.5626788 35.8746424 -22.68452496 30.04293642 -22.72509766 25.18408203 C-22.74161943 23.73502499 -22.76886032 22.28604819 -22.80712891 20.83740234 C-22.86220676 18.7401333 -22.88381703 16.64477212 -22.8984375 14.546875 C-22.91825684 13.29229492 -22.93807617 12.03771484 -22.95849609 10.74511719 C-22.17837555 6.07222779 -20.77626947 4.51252945 -17.375 1.25 C-12.31161143 -1.00977867 -5.44329094 0.02287097 0 0 Z " fill="#0D0D0D" transform="translate(549.375,1386.75)"/>
<path d="M0 0 C0.76121658 -0.00570007 1.52243317 -0.01140015 2.30671692 -0.01727295 C3.92329513 -0.02674022 5.53989279 -0.03326376 7.15649414 -0.03710938 C9.61704932 -0.04676713 12.07675218 -0.07775278 14.53710938 -0.109375 C16.10806796 -0.11590976 17.67903252 -0.12115837 19.25 -0.125 C20.34721626 -0.1435202 20.34721626 -0.1435202 21.46659851 -0.16241455 C26.21105278 -0.14198751 29.43183355 0.69096362 33.45703125 3.203125 C37.05571607 7.7147954 36.95069536 11.74034834 36.8203125 17.3125 C36.31029383 21.37071306 35.20275947 23.21512664 32.45703125 26.203125 C30.02315372 27.42006376 28.03864279 27.52272396 25.33203125 27.765625 C23.96691406 27.89130859 23.96691406 27.89130859 22.57421875 28.01953125 C21.87554688 28.08011719 21.176875 28.14070313 20.45703125 28.203125 C24.41479563 33.13222513 24.41479563 33.13222513 29.92578125 35.890625 C32.65473538 36.20248784 32.65473538 36.20248784 36.45703125 36.203125 C36.45703125 39.173125 36.45703125 42.143125 36.45703125 45.203125 C32.00943637 46.38657199 27.80038943 46.89587866 23.45703125 45.203125 C19.28860948 42.05447784 15.82418463 38.2399026 12.37133789 34.33813477 C11.68934326 33.57299561 11.00734863 32.80785645 10.3046875 32.01953125 C9.40762085 30.95907593 9.40762085 30.95907593 8.49243164 29.87719727 C6.10730774 27.6313493 6.10730774 27.6313493 0.45703125 27.203125 C0.45703125 33.143125 0.45703125 39.083125 0.45703125 45.203125 C-2.51296875 45.203125 -5.48296875 45.203125 -8.54296875 45.203125 C-8.5676133 38.95516246 -8.58580218 32.70722797 -8.59790039 26.45922852 C-8.60294173 24.33194486 -8.60977466 22.20466469 -8.6184082 20.07739258 C-8.63048254 17.02684674 -8.63619889 13.97634655 -8.640625 10.92578125 C-8.64578629 9.96849625 -8.65094757 9.01121124 -8.65626526 8.0249176 C-8.65634079 7.14408005 -8.65641632 6.26324249 -8.65649414 5.35571289 C-8.65871475 4.57627823 -8.66093536 3.79684357 -8.66322327 2.99378967 C-8.36577616 -1.435383 -3.40363375 0.0195052 0 0 Z " fill="#0E0E0E" transform="translate(1327.54296875,1386.796875)"/>
<path d="M0 0 C1.25683594 0.00322266 2.51367188 0.00644531 3.80859375 0.00976562 C5.12730469 0.01814453 6.44601562 0.02652344 7.8046875 0.03515625 C9.14452961 0.04017136 10.4843735 0.04473424 11.82421875 0.04882812 C15.10941956 0.06064539 18.39453147 0.07712008 21.6796875 0.09765625 C21.6796875 3.39765625 21.6796875 6.69765625 21.6796875 10.09765625 C13.0996875 10.09765625 4.5196875 10.09765625 -4.3203125 10.09765625 C-4.3203125 12.73765625 -4.3203125 15.37765625 -4.3203125 18.09765625 C7.2296875 18.09765625 18.7796875 18.09765625 30.6796875 18.09765625 C30.6796875 21.06765625 30.6796875 24.03765625 30.6796875 27.09765625 C27.7096875 27.09765625 24.7396875 27.09765625 21.6796875 27.09765625 C21.6796875 30.06765625 21.6796875 33.03765625 21.6796875 36.09765625 C24.6496875 36.09765625 27.6196875 36.09765625 30.6796875 36.09765625 C30.6796875 39.06765625 30.6796875 42.03765625 30.6796875 45.09765625 C28.90919061 45.15176312 27.13821901 45.19049744 25.3671875 45.22265625 C23.88798828 45.25746094 23.88798828 45.25746094 22.37890625 45.29296875 C19.6796875 45.09765625 19.6796875 45.09765625 16.6796875 43.09765625 C16.0196875 43.75765625 15.3596875 44.41765625 14.6796875 45.09765625 C11.09650842 45.5779968 7.47890296 45.46804653 3.8671875 45.47265625 C2.86880859 45.49714844 1.87042969 45.52164062 0.84179688 45.546875 C-6.52940063 45.57634015 -6.52940063 45.57634015 -10.45703125 43.19921875 C-13.72049443 39.51841542 -13.4282292 37.07719658 -13.3828125 32.22265625 C-13.37378906 30.98773437 -13.36476563 29.7528125 -13.35546875 28.48046875 C-13.34386719 27.36414062 -13.33226562 26.2478125 -13.3203125 25.09765625 C-13.3203125 22.59827142 -13.3705849 20.09779407 -13.49609375 17.6015625 C-13.56376953 15.65056641 -13.56376953 15.65056641 -13.6328125 13.66015625 C-13.69082031 12.36207031 -13.74882813 11.06398438 -13.80859375 9.7265625 C-13.20327564 5.22783833 -11.8028705 3.89101237 -8.3203125 1.09765625 C-5.50207058 -0.31146471 -3.14779968 -0.01417928 0 0 Z " fill="#090909" transform="translate(1113.3203125,1386.90234375)"/>
<path d="M0 0 C0.76883011 -0.00095673 1.53766022 -0.00191345 2.32978821 -0.00289917 C3.94943321 -0.00357806 5.56908097 -0.00174413 7.1887207 0.00244141 C9.67730747 0.0078158 12.16571555 0.00247536 14.65429688 -0.00390625 C16.22786498 -0.00324585 17.80143298 -0.00196547 19.375 0 C20.12287277 -0.00202423 20.87074554 -0.00404846 21.64128113 -0.00613403 C26.87331502 0.01784627 26.87331502 0.01784627 27.98828125 1.1328125 C27.98828125 4.1028125 27.98828125 7.0728125 27.98828125 10.1328125 C16.43828125 10.1328125 4.88828125 10.1328125 -7.01171875 10.1328125 C-7.01171875 12.7728125 -7.01171875 15.4128125 -7.01171875 18.1328125 C4.53828125 18.1328125 16.08828125 18.1328125 27.98828125 18.1328125 C27.98828125 21.1028125 27.98828125 24.0728125 27.98828125 27.1328125 C16.43828125 27.1328125 4.88828125 27.1328125 -7.01171875 27.1328125 C-7.01171875 30.1028125 -7.01171875 33.0728125 -7.01171875 36.1328125 C4.53828125 36.1328125 16.08828125 36.1328125 27.98828125 36.1328125 C27.98828125 39.1028125 27.98828125 42.0728125 27.98828125 45.1328125 C22.68644666 45.2567941 17.38546331 45.34733026 12.08251953 45.4074707 C10.28028659 45.43255116 8.47815474 45.46662438 6.67626953 45.51000977 C4.07949848 45.57095 1.4840766 45.59908596 -1.11328125 45.62109375 C-2.3136351 45.65980339 -2.3136351 45.65980339 -3.53823853 45.69929504 C-7.45458206 45.70124027 -10.27701645 45.3918303 -13.52246094 43.08666992 C-16.55843736 39.48405334 -16.85682442 36.90210078 -16.73828125 32.3828125 C-16.73927826 31.64708008 -16.74027527 30.91134766 -16.74130249 30.15332031 C-16.73663779 28.60340528 -16.71727782 27.05347277 -16.68408203 25.50390625 C-16.63684712 23.1392391 -16.6429689 20.77908234 -16.65625 18.4140625 C-16.6450955 16.90361911 -16.63087508 15.39319461 -16.61328125 13.8828125 C-16.61510406 13.1805957 -16.61692688 12.47837891 -16.61880493 11.75488281 C-16.5186871 8.26678391 -16.05766785 6.2079175 -14.22412109 3.2109375 C-10.03660533 -0.72242536 -5.50327254 -0.01501738 0 0 Z " fill="#0B0B0B" transform="translate(1275.01171875,1386.8671875)"/>
<path d="M0 0 C1.26092972 0.00212242 1.26092972 0.00212242 2.54733276 0.00428772 C5.23732025 0.00989388 7.92722509 0.02244739 10.6171875 0.03515625 C12.43880088 0.04017046 14.26041557 0.0447335 16.08203125 0.04882812 C20.55211527 0.05986531 25.02213736 0.07713405 29.4921875 0.09765625 C29.4921875 3.06765625 29.4921875 6.03765625 29.4921875 9.09765625 C17.9421875 9.09765625 6.3921875 9.09765625 -5.5078125 9.09765625 C-5.5078125 12.06765625 -5.5078125 15.03765625 -5.5078125 18.09765625 C6.0421875 18.09765625 17.5921875 18.09765625 29.4921875 18.09765625 C29.4921875 21.06765625 29.4921875 24.03765625 29.4921875 27.09765625 C17.9421875 27.09765625 6.3921875 27.09765625 -5.5078125 27.09765625 C-5.5078125 29.73765625 -5.5078125 32.37765625 -5.5078125 35.09765625 C6.0421875 35.09765625 17.5921875 35.09765625 29.4921875 35.09765625 C29.4921875 38.39765625 29.4921875 41.69765625 29.4921875 45.09765625 C24.47513029 45.17207631 19.45839778 45.22638533 14.44091797 45.26245117 C12.73578287 45.27749363 11.03068618 45.29793278 9.32568359 45.32397461 C6.86806738 45.36055909 4.41096481 45.37742798 1.953125 45.390625 C1.19663666 45.40610886 0.44014832 45.42159271 -0.33926392 45.43754578 C-5.11924065 45.43904948 -8.37496093 44.75482253 -12.5078125 42.09765625 C-14.89386599 38.51857602 -14.83041665 35.89934069 -14.84375 31.76171875 C-14.8537352 30.68716934 -14.8537352 30.68716934 -14.86392212 29.59091187 C-14.87403945 28.07625899 -14.87873942 26.56156163 -14.87841797 25.046875 C-14.88278438 22.73752734 -14.91908979 20.43010241 -14.95703125 18.12109375 C-14.96290117 16.64714193 -14.96686939 15.17318106 -14.96875 13.69921875 C-14.98312103 13.01260162 -14.99749207 12.3259845 -15.01229858 11.61856079 C-14.96715052 6.84476218 -13.87549622 4.4512197 -10.5078125 1.09765625 C-7.22889325 -0.54180338 -3.60167716 -0.02264553 0 0 Z " fill="#0A0A0A" transform="translate(972.5078125,1194.90234375)"/>
<path d="M0 0 C1.22763565 0.00212242 1.22763565 0.00212242 2.48007202 0.00428772 C5.09873075 0.00989335 7.71730454 0.02244677 10.3359375 0.03515625 C12.10937377 0.04017053 13.88281137 0.04473356 15.65625 0.04882812 C20.00784532 0.05986461 24.359377 0.077133 28.7109375 0.09765625 C28.7109375 3.39765625 28.7109375 6.69765625 28.7109375 10.09765625 C17.1609375 10.09765625 5.6109375 10.09765625 -6.2890625 10.09765625 C-6.2890625 18.67765625 -6.2890625 27.25765625 -6.2890625 36.09765625 C2.2909375 36.09765625 10.8709375 36.09765625 19.7109375 36.09765625 C19.7109375 33.12765625 19.7109375 30.15765625 19.7109375 27.09765625 C13.7709375 27.09765625 7.8309375 27.09765625 1.7109375 27.09765625 C1.7109375 24.12765625 1.7109375 21.15765625 1.7109375 18.09765625 C10.6209375 18.09765625 19.5309375 18.09765625 28.7109375 18.09765625 C28.7934375 21.45953125 28.8759375 24.82140625 28.9609375 28.28515625 C28.99735352 29.33598389 29.03376953 30.38681152 29.07128906 31.46948242 C29.12332845 35.84624704 29.13622127 38.39734393 26.8203125 42.2109375 C21.90325799 46.60896959 15.42133884 45.35941998 9.1628418 45.39282227 C6.91718177 45.41001276 4.67300317 45.45389625 2.42773438 45.49804688 C0.99480247 45.50817626 -0.43814193 45.5166916 -1.87109375 45.5234375 C-3.17280518 45.53802002 -4.4745166 45.55260254 -5.81567383 45.56762695 C-9.83836195 45.02333268 -11.44945986 43.93659829 -14.2890625 41.09765625 C-16.53240424 36.61097277 -15.60025625 30.10359219 -15.63916016 25.12231445 C-15.65570612 23.56942748 -15.68297892 22.01661625 -15.72119141 20.46411133 C-15.77610664 18.22046584 -15.79785388 15.978603 -15.8125 13.734375 C-15.83516937 13.04462082 -15.85783875 12.35486664 -15.88119507 11.64421082 C-15.86422832 7.75172204 -15.39450781 6.22530901 -12.88134766 3.18286133 C-8.5813261 -0.27602774 -5.33372431 -0.03445385 0 0 Z " fill="#0B0B0B" transform="translate(1017.2890625,1386.90234375)"/>
<path d="M0 0 C0.85857101 0.00848969 1.71714203 0.01697937 2.60173035 0.02572632 C5.33344106 0.05920953 8.06215655 0.1344738 10.79296875 0.2109375 C12.64904579 0.24104392 14.50516928 0.26841855 16.36132812 0.29296875 C20.90218882 0.35898355 25.44082171 0.46246569 29.98046875 0.5859375 C29.98046875 3.5559375 29.98046875 6.5259375 29.98046875 9.5859375 C18.43046875 9.5859375 6.88046875 9.5859375 -5.01953125 9.5859375 C-5.01953125 12.2259375 -5.01953125 14.8659375 -5.01953125 17.5859375 C6.53046875 17.5859375 18.08046875 17.5859375 29.98046875 17.5859375 C29.98046875 20.5559375 29.98046875 23.5259375 29.98046875 26.5859375 C18.43046875 26.5859375 6.88046875 26.5859375 -5.01953125 26.5859375 C-5.01953125 29.5559375 -5.01953125 32.5259375 -5.01953125 35.5859375 C6.53046875 35.5859375 18.08046875 35.5859375 29.98046875 35.5859375 C29.98046875 38.5559375 29.98046875 41.5259375 29.98046875 44.5859375 C24.66032359 44.70976814 19.34102161 44.80038426 14.01977539 44.8605957 C12.21070743 44.8857014 10.40174053 44.91979345 8.59301758 44.96313477 C5.98884124 45.02396329 3.38600844 45.05218559 0.78125 45.07421875 C-0.02414719 45.10002518 -0.82954437 45.1258316 -1.65934753 45.15242004 C-5.97083683 45.15456133 -7.52330641 44.98548832 -11.00708008 42.18041992 C-15.16349591 36.8219059 -14.31522527 31.0352221 -14.36962891 24.52001953 C-14.38615068 23.07096249 -14.41339157 21.62198569 -14.45166016 20.17333984 C-14.50673801 18.0760708 -14.52834828 15.98070962 -14.54296875 13.8828125 C-14.56278809 12.62823242 -14.58260742 11.37365234 -14.60302734 10.08105469 C-13.10477102 1.10656201 -7.96026034 -0.29798103 0 0 Z " fill="#070707" transform="translate(1577.01953125,1387.4140625)"/>
<path d="M0 0 C0.85857101 0.00848969 1.71714203 0.01697937 2.60173035 0.02572632 C5.33344106 0.05920953 8.06215655 0.1344738 10.79296875 0.2109375 C12.64904579 0.24104392 14.50516928 0.26841855 16.36132812 0.29296875 C20.90218882 0.35898355 25.44082171 0.46246569 29.98046875 0.5859375 C29.98046875 3.5559375 29.98046875 6.5259375 29.98046875 9.5859375 C18.43046875 9.5859375 6.88046875 9.5859375 -5.01953125 9.5859375 C-5.01953125 12.2259375 -5.01953125 14.8659375 -5.01953125 17.5859375 C-3.74891846 17.54666138 -3.74891846 17.54666138 -2.45263672 17.5065918 C0.71184937 17.42101245 3.87574281 17.35851653 7.04101562 17.3112793 C8.40677378 17.2862447 9.77239942 17.25220532 11.13769531 17.20874023 C23.9305781 16.81188073 23.9305781 16.81188073 27.87109375 19.60546875 C30.49888107 23.31843491 30.80822508 26.19018023 30.60546875 30.5859375 C30.61513672 31.63394531 30.61513672 31.63394531 30.625 32.703125 C30.52375821 37.58113861 29.43138729 40.17379332 25.98046875 43.5859375 C22.7015495 45.22539713 19.07433341 44.70623928 15.47265625 44.68359375 C14.21172653 44.68147133 14.21172653 44.68147133 12.92532349 44.67930603 C10.235336 44.67369987 7.54543116 44.66114636 4.85546875 44.6484375 C3.03385537 44.64342329 1.21224068 44.63886025 -0.609375 44.63476562 C-5.07945902 44.62372844 -9.54948111 44.6064597 -14.01953125 44.5859375 C-14.01953125 41.6159375 -14.01953125 38.6459375 -14.01953125 35.5859375 C-2.46953125 35.5859375 9.08046875 35.5859375 20.98046875 35.5859375 C20.98046875 32.6159375 20.98046875 29.6459375 20.98046875 26.5859375 C20.09786377 26.6173584 19.21525879 26.6487793 18.3059082 26.68115234 C15.0162796 26.78370308 11.72835922 26.85875998 8.43774414 26.91552734 C7.01657235 26.94561704 5.59558503 26.98650154 4.17504883 27.03857422 C-7.42639875 27.45305676 -7.42639875 27.45305676 -11.0703125 25.46972656 C-14.30036338 21.99742186 -14.69448081 18.14133762 -14.64453125 13.5859375 C-14.65742187 12.4103125 -14.6703125 11.2346875 -14.68359375 10.0234375 C-12.96440119 1.1240878 -8.08098581 -0.30250021 0 0 Z " fill="#070707" transform="translate(1638.01953125,1387.4140625)"/>
<path d="M0 0 C0.85857101 0.00848969 1.71714203 0.01697937 2.60173035 0.02572632 C5.33344106 0.05920953 8.06215655 0.1344738 10.79296875 0.2109375 C12.64904579 0.24104392 14.50516928 0.26841855 16.36132812 0.29296875 C20.90218882 0.35898355 25.44082171 0.46246569 29.98046875 0.5859375 C29.98046875 3.5559375 29.98046875 6.5259375 29.98046875 9.5859375 C18.43046875 9.5859375 6.88046875 9.5859375 -5.01953125 9.5859375 C-5.01953125 12.2259375 -5.01953125 14.8659375 -5.01953125 17.5859375 C-3.74891846 17.54666138 -3.74891846 17.54666138 -2.45263672 17.5065918 C0.71184937 17.42101245 3.87574281 17.35851653 7.04101562 17.3112793 C8.40677378 17.2862447 9.77239942 17.25220532 11.13769531 17.20874023 C23.9305781 16.81188073 23.9305781 16.81188073 27.87109375 19.60546875 C30.49888107 23.31843491 30.80822508 26.19018023 30.60546875 30.5859375 C30.61513672 31.63394531 30.61513672 31.63394531 30.625 32.703125 C30.52375821 37.58113861 29.43138729 40.17379332 25.98046875 43.5859375 C22.7015495 45.22539713 19.07433341 44.70623928 15.47265625 44.68359375 C14.21172653 44.68147133 14.21172653 44.68147133 12.92532349 44.67930603 C10.235336 44.67369987 7.54543116 44.66114636 4.85546875 44.6484375 C3.03385537 44.64342329 1.21224068 44.63886025 -0.609375 44.63476562 C-5.07945902 44.62372844 -9.54948111 44.6064597 -14.01953125 44.5859375 C-14.01953125 41.6159375 -14.01953125 38.6459375 -14.01953125 35.5859375 C-2.46953125 35.5859375 9.08046875 35.5859375 20.98046875 35.5859375 C20.98046875 32.6159375 20.98046875 29.6459375 20.98046875 26.5859375 C20.09786377 26.6173584 19.21525879 26.6487793 18.3059082 26.68115234 C15.0162796 26.78370308 11.72835922 26.85875998 8.43774414 26.91552734 C7.01657235 26.94561704 5.59558503 26.98650154 4.17504883 27.03857422 C-7.42639875 27.45305676 -7.42639875 27.45305676 -11.0703125 25.46972656 C-14.30036338 21.99742186 -14.69448081 18.14133762 -14.64453125 13.5859375 C-14.65742187 12.4103125 -14.6703125 11.2346875 -14.68359375 10.0234375 C-12.96440119 1.1240878 -8.08098581 -0.30250021 0 0 Z " fill="#070707" transform="translate(663.01953125,1387.4140625)"/>
<path d="M0 0 C0.85857101 0.00707474 1.71714203 0.01414948 2.60173035 0.0214386 C5.33304478 0.04933723 8.06227833 0.11206434 10.79296875 0.17578125 C12.64905885 0.20087011 14.50518121 0.22368226 16.36132812 0.24414062 C20.90183847 0.29914872 25.44080132 0.38538761 29.98046875 0.48828125 C29.98046875 3.45828125 29.98046875 6.42828125 29.98046875 9.48828125 C18.43046875 9.48828125 6.88046875 9.48828125 -5.01953125 9.48828125 C-5.01953125 12.12828125 -5.01953125 14.76828125 -5.01953125 17.48828125 C-4.19751221 17.4725708 -3.37549316 17.45686035 -2.52856445 17.44067383 C1.20354303 17.37823052 4.93554047 17.33925989 8.66796875 17.30078125 C9.96154297 17.27564453 11.25511719 17.25050781 12.58789062 17.22460938 C13.83505859 17.21494141 15.08222656 17.20527344 16.3671875 17.1953125 C17.51405029 17.17960205 18.66091309 17.1638916 19.8425293 17.14770508 C23.33178168 17.52641099 25.17345069 18.42491113 27.98046875 20.48828125 C30.360342 23.77408812 30.27918162 26.95049184 30.29296875 30.92578125 C30.30972656 32.03824219 30.32648438 33.15070313 30.34375 34.296875 C29.93830252 37.85870928 29.17790668 39.67575911 26.98046875 42.48828125 C23.19277167 45.19176982 18.95031365 44.74189208 14.49609375 44.68359375 C13.68049988 44.68076385 12.86490601 44.67793396 12.02459717 44.67501831 C9.42640347 44.66384683 6.8285578 44.638748 4.23046875 44.61328125 C2.46615082 44.60324752 0.70182747 44.59412236 -1.0625 44.5859375 C-5.38164398 44.56391744 -9.70052866 44.52940858 -14.01953125 44.48828125 C-14.01953125 41.51828125 -14.01953125 38.54828125 -14.01953125 35.48828125 C-2.46953125 35.48828125 9.08046875 35.48828125 20.98046875 35.48828125 C20.98046875 32.51828125 20.98046875 29.54828125 20.98046875 26.48828125 C19.65656128 26.52755737 19.65656128 26.52755737 18.3059082 26.56762695 C15.01635295 26.653084 11.72798453 26.7156387 8.43774414 26.76293945 C7.01665584 26.78801272 5.59569562 26.82208124 4.17504883 26.86547852 C2.12679413 26.92645983 0.08024992 26.95455887 -1.96875 26.9765625 C-3.81472778 27.01583862 -3.81472778 27.01583862 -5.69799805 27.0559082 C-9.96075157 26.32743323 -11.40032381 24.86418244 -14.01953125 21.48828125 C-14.52712542 18.57409352 -14.72449694 16.37770835 -14.64453125 13.48828125 C-14.66386719 12.78960938 -14.68320313 12.0909375 -14.703125 11.37109375 C-14.66891844 7.74519814 -14.18763968 5.71843686 -12.04174805 2.78051758 C-7.92823661 -0.33942417 -5.0209165 -0.15662573 0 0 Z " fill="#080808" transform="translate(1212.01953125,1387.51171875)"/>
<path d="M0 0 C2.97 0 5.94 0 9 0 C9.07409532 5.92648574 9.12857616 11.85270253 9.16479492 17.77954102 C9.17989179 19.79619034 9.20037115 21.81280679 9.22631836 23.8293457 C9.26266211 26.72615671 9.2797172 29.62253406 9.29296875 32.51953125 C9.30845261 33.42274612 9.32393646 34.325961 9.33988953 35.25654602 C9.34011612 36.09719101 9.34034271 36.937836 9.34057617 37.80395508 C9.34723801 38.54341873 9.35389984 39.28288239 9.36076355 40.04475403 C8.89598446 42.56373758 8.01253339 43.46096157 6 45 C2.26469719 45.07964314 0.90891587 43.92291607 -1.9543457 41.49975586 C-3.03847369 40.41499818 -4.11175774 39.31932856 -5.17578125 38.21484375 C-5.74580368 37.63916153 -6.31582611 37.06347931 -6.90312195 36.47035217 C-8.71587563 34.63526509 -10.51420252 32.78674484 -12.3125 30.9375 C-13.54139078 29.68854041 -14.77119864 28.44048246 -16.00195312 27.19335938 C-19.01388833 24.14080468 -22.00591222 21.0704784 -25 18 C-25.33 26.91 -25.66 35.82 -26 45 C-28.97 45 -31.94 45 -35 45 C-35.04934399 39.05518819 -35.08569282 33.11049491 -35.10986328 27.16552734 C-35.11993671 25.14206873 -35.13359595 23.11862472 -35.15087891 21.09521484 C-35.17506847 18.19104411 -35.18646949 15.28706539 -35.1953125 12.3828125 C-35.20563507 11.47443634 -35.21595764 10.56606018 -35.22659302 9.63015747 C-35.22674408 8.78943695 -35.22689514 7.94871643 -35.22705078 7.08251953 C-35.231492 6.34083527 -35.23593323 5.599151 -35.24050903 4.83499146 C-35 3 -35 3 -33 1 C-30.7746582 0.50585938 -30.7746582 0.50585938 -28 1 C-25.66085022 2.90326589 -23.67504804 4.74210661 -21.60546875 6.90625 C-20.71714104 7.80518982 -20.71714104 7.80518982 -19.81086731 8.72229004 C-17.92434721 10.63677093 -16.05596006 12.5679052 -14.1875 14.5 C-12.91066284 15.8019176 -11.63268071 17.10271333 -10.35351562 18.40234375 C-7.2198923 21.58680457 -4.11137818 24.79318077 -1 28 C-0.67 18.76 -0.34 9.52 0 0 Z " fill="#040404" transform="translate(976,1387)"/>
<path d="M0 0 C2.97 0 5.94 0 9 0 C9.04934154 6.08722746 9.08569167 12.1743392 9.10986328 18.26171875 C9.11993712 20.33367947 9.13359666 22.40562593 9.15087891 24.47753906 C9.17506664 27.45120764 9.18646908 30.4246887 9.1953125 33.3984375 C9.20563507 34.32868744 9.21595764 35.25893738 9.22659302 36.21737671 C9.22681961 37.50848862 9.22681961 37.50848862 9.22705078 38.82568359 C9.231492 39.58513275 9.23593323 40.34458191 9.24050903 41.12704468 C9 43 9 43 7 45 C2.66470496 44.96980532 0.4864946 42.93440934 -2.47929382 39.94824219 C-3.01593155 39.38782227 -3.55256927 38.82740234 -4.10546875 38.25 C-4.67074783 37.67668945 -5.23602692 37.10337891 -5.81843567 36.51269531 C-7.61783117 34.68435882 -9.40303298 32.84289923 -11.1875 31 C-12.98521898 29.15978119 -14.78574675 27.32239572 -16.58869934 25.48730469 C-17.70861764 24.34567808 -18.82501869 23.20058843 -19.93754578 22.05175781 C-22.68607967 19.15898515 -22.68607967 19.15898515 -26 17 C-26 26.24 -26 35.48 -26 45 C-28.97 45 -31.94 45 -35 45 C-35.04934399 39.05518819 -35.08569282 33.11049491 -35.10986328 27.16552734 C-35.11993671 25.14206873 -35.13359595 23.11862472 -35.15087891 21.09521484 C-35.17506847 18.19104411 -35.18646949 15.28706539 -35.1953125 12.3828125 C-35.20563507 11.47443634 -35.21595764 10.56606018 -35.22659302 9.63015747 C-35.22674408 8.78943695 -35.22689514 7.94871643 -35.22705078 7.08251953 C-35.231492 6.34083527 -35.23593323 5.599151 -35.24050903 4.83499146 C-35 3 -35 3 -33 1 C-29.14239169 0.42779147 -27.53747568 0.60458071 -24.36279297 2.94018555 C-23.49799316 3.8300415 -22.63319336 4.71989746 -21.7421875 5.63671875 C-21.03668259 6.35140068 -21.03668259 6.35140068 -20.31692505 7.08052063 C-18.82164986 8.60264524 -17.34875705 10.14456267 -15.875 11.6875 C-14.8776457 12.70639508 -13.87895935 13.72398807 -12.87890625 14.74023438 C-8.69389361 19.02060426 -4.74711834 23.31610207 -1 28 C-0.67 18.76 -0.34 9.52 0 0 Z " fill="#080808" transform="translate(623,1387)"/>
<path d="M0 0 C14.52 0 29.04 0 44 0 C44 3.3 44 6.6 44 10 C38.39 10 32.78 10 27 10 C27 18.58 27 27.16 27 36 C32.61 36 38.22 36 44 36 C44 38.97 44 41.94 44 45 C29.48 45 14.96 45 0 45 C0 42.03 0 39.06 0 36 C5.61 36 11.22 36 17 36 C17 27.42 17 18.84 17 10 C11.39 10 5.78 10 0 10 C0 6.7 0 3.4 0 0 Z " fill="#0F0F0F" transform="translate(880,1387)"/>
<path d="M0 0 C0.76166977 0.00222061 1.52333954 0.00444122 2.30809021 0.00672913 C3.16890701 0.00680466 4.02972382 0.00688019 4.91662598 0.00695801 C5.8520372 0.01211929 6.78744843 0.01728058 7.75120544 0.02259827 C8.70422043 0.02401321 9.65723541 0.02542816 10.63912964 0.02688599 C13.69605085 0.032503 16.75289996 0.04505836 19.80979919 0.05775452 C21.87685543 0.06276733 23.94391281 0.06733061 26.01097107 0.07142639 C31.08977507 0.08247795 36.16852489 0.09975397 41.24729919 0.12025452 C41.24729919 3.42025452 41.24729919 6.72025452 41.24729919 10.12025452 C35.63729919 10.12025452 30.02729919 10.12025452 24.24729919 10.12025452 C24.24729919 18.70025452 24.24729919 27.28025452 24.24729919 36.12025452 C29.85729919 36.12025452 35.46729919 36.12025452 41.24729919 36.12025452 C41.24729919 39.09025452 41.24729919 42.06025452 41.24729919 45.12025452 C26.72729919 45.12025452 12.20729919 45.12025452 -2.75270081 45.12025452 C-2.75270081 42.15025452 -2.75270081 39.18025452 -2.75270081 36.12025452 C3.18729919 36.12025452 9.12729919 36.12025452 15.24729919 36.12025452 C15.24729919 27.54025452 15.24729919 18.96025452 15.24729919 10.12025452 C9.30729919 10.12025452 3.36729919 10.12025452 -2.75270081 10.12025452 C-2.75270081 0.18886549 -2.75270081 0.18886549 0 0 Z " fill="#0B0B0B" transform="translate(1443.752700805664,1386.8797454833984)"/>
<path d="M0 0 C2.97 0 5.94 0 9 0 C9 5.94 9 11.88 9 18 C17.58 18 26.16 18 35 18 C35 12.06 35 6.12 35 0 C37.97 0 40.94 0 44 0 C44 14.52 44 29.04 44 44 C41.03 44 38.06 44 35 44 C35 38.39 35 32.78 35 27 C26.42 27 17.84 27 9 27 C9 32.94 9 38.88 9 45 C6.03 45 3.06 45 0 45 C0 30.15 0 15.3 0 0 Z " fill="#050505" transform="translate(1081,1195)"/>
<path d="M0 0 C23.1 0 46.2 0 70 0 C70 3.3 70 6.6 70 10 C60.1 10 50.2 10 40 10 C40 21.55 40 33.1 40 45 C37.03 45 34.06 45 31 45 C31 33.45 31 21.9 31 10 C20.77 10 10.54 10 0 10 C0 6.7 0 3.4 0 0 Z " fill="#0F0F0F" transform="translate(793,1387)"/>
<path d="M0 0 C2.97 0 5.94 0 9 0 C9 11.88 9 23.76 9 36 C17.58 36 26.16 36 35 36 C35 24.12 35 12.24 35 0 C37.97 0 40.94 0 44 0 C44.09904974 5.46259293 44.17155375 10.92466049 44.21972656 16.38793945 C44.23981305 18.24545398 44.26708778 20.10290551 44.30175781 21.96020508 C44.35040737 24.63378463 44.37299809 27.30652656 44.390625 29.98046875 C44.41127014 30.80773972 44.43191528 31.63501068 44.45318604 32.48735046 C44.45475043 36.52841025 44.31467479 38.50278957 42.10058594 42.0012207 C37.29271904 46.57607034 30.72137798 45.29956492 24.4519043 45.35009766 C22.94751499 45.36664188 21.4432038 45.39391251 19.93920898 45.43212891 C17.76504959 45.48706208 15.59272978 45.5087937 13.41796875 45.5234375 C11.46540161 45.5531665 11.46540161 45.5531665 9.47338867 45.58349609 C5.14044079 44.85560227 3.72348577 43.36372826 1 40 C-0.63945963 36.72108075 -0.12030178 33.09386466 -0.09765625 29.4921875 C-0.0962413 28.65156769 -0.09482635 27.81094788 -0.09336853 26.94485474 C-0.08776237 24.25486725 -0.07520886 21.56496241 -0.0625 18.875 C-0.05748579 17.05338662 -0.05292275 15.23177193 -0.04882812 13.41015625 C-0.03779094 8.94007223 -0.0205222 4.47005014 0 0 Z " fill="#090909" transform="translate(710,1387)"/>
<path d="M0 0 C1.15680267 0.00212242 1.15680267 0.00212242 2.3369751 0.00428772 C4.79239838 0.00987091 7.24772942 0.0224203 9.703125 0.03515625 C11.37109243 0.04017342 13.03906129 0.04473595 14.70703125 0.04882812 C18.78909787 0.05983484 22.87109581 0.07708789 26.953125 0.09765625 C26.953125 3.39765625 26.953125 6.69765625 26.953125 10.09765625 C15.403125 10.09765625 3.853125 10.09765625 -8.046875 10.09765625 C-8.046875 18.67765625 -8.046875 27.25765625 -8.046875 36.09765625 C3.503125 36.09765625 15.053125 36.09765625 26.953125 36.09765625 C26.953125 39.06765625 26.953125 42.03765625 26.953125 45.09765625 C21.63297984 45.22148689 16.31367786 45.31210301 10.99243164 45.37231445 C9.18336368 45.39742015 7.37439678 45.4315122 5.56567383 45.47485352 C2.96149749 45.53568204 0.35866469 45.56390434 -2.24609375 45.5859375 C-3.05149094 45.61174393 -3.85688812 45.63755035 -4.68669128 45.66413879 C-8.74901948 45.66615633 -10.60419378 45.39617531 -14.05761719 43.06738281 C-16.5392474 39.36260251 -16.75448595 36.41079075 -16.67578125 32.09375 C-16.67819321 31.33344986 -16.68060516 30.57314972 -16.68309021 29.78981018 C-16.68211407 28.18867761 -16.66877572 26.58751031 -16.64379883 24.98657227 C-16.6094249 22.53870973 -16.6231635 20.0944476 -16.64257812 17.64648438 C-16.63568074 16.08722426 -16.62600931 14.52797342 -16.61328125 12.96875 C-16.61824112 12.23949814 -16.62320099 11.51024628 -16.62831116 10.75889587 C-16.55003198 7.37646378 -16.28719764 5.42466987 -14.26147461 2.66821289 C-9.80340401 -0.49337549 -5.30830004 -0.03677847 0 0 Z " fill="#090909" transform="translate(1519.046875,1386.90234375)"/>
<path d="M0 0 C1.15680267 0.00212242 1.15680267 0.00212242 2.3369751 0.00428772 C4.79239838 0.00987091 7.24772942 0.0224203 9.703125 0.03515625 C11.37109243 0.04017342 13.03906129 0.04473595 14.70703125 0.04882812 C18.78909787 0.05983484 22.87109581 0.07708789 26.953125 0.09765625 C26.953125 3.39765625 26.953125 6.69765625 26.953125 10.09765625 C15.403125 10.09765625 3.853125 10.09765625 -8.046875 10.09765625 C-8.046875 18.67765625 -8.046875 27.25765625 -8.046875 36.09765625 C3.503125 36.09765625 15.053125 36.09765625 26.953125 36.09765625 C26.953125 39.06765625 26.953125 42.03765625 26.953125 45.09765625 C21.63297984 45.22148689 16.31367786 45.31210301 10.99243164 45.37231445 C9.18336368 45.39742015 7.37439678 45.4315122 5.56567383 45.47485352 C2.96149749 45.53568204 0.35866469 45.56390434 -2.24609375 45.5859375 C-3.05149094 45.61174393 -3.85688812 45.63755035 -4.68669128 45.66413879 C-8.74901948 45.66615633 -10.60419378 45.39617531 -14.05761719 43.06738281 C-16.5392474 39.36260251 -16.75448595 36.41079075 -16.67578125 32.09375 C-16.67819321 31.33344986 -16.68060516 30.57314972 -16.68309021 29.78981018 C-16.68211407 28.18867761 -16.66877572 26.58751031 -16.64379883 24.98657227 C-16.6094249 22.53870973 -16.6231635 20.0944476 -16.64257812 17.64648438 C-16.63568074 16.08722426 -16.62600931 14.52797342 -16.61328125 12.96875 C-16.61824112 12.23949814 -16.62320099 11.51024628 -16.62831116 10.75889587 C-16.55003198 7.37646378 -16.28719764 5.42466987 -14.26147461 2.66821289 C-9.80340401 -0.49337549 -5.30830004 -0.03677847 0 0 Z " fill="#090909" transform="translate(483.046875,1386.90234375)"/>
<path d="M0 0 C0.85857101 0.00707474 1.71714203 0.01414948 2.60173035 0.0214386 C5.33304478 0.04933723 8.06227833 0.11206434 10.79296875 0.17578125 C12.64905885 0.20087011 14.50518121 0.22368226 16.36132812 0.24414062 C20.90183847 0.29914872 25.44080132 0.38538761 29.98046875 0.48828125 C29.98046875 3.45828125 29.98046875 6.42828125 29.98046875 9.48828125 C18.10046875 9.48828125 6.22046875 9.48828125 -6.01953125 9.48828125 C-5.68953125 18.06828125 -5.35953125 26.64828125 -5.01953125 35.48828125 C6.20046875 35.81828125 17.42046875 36.14828125 28.98046875 36.48828125 C28.98046875 39.12828125 28.98046875 41.76828125 28.98046875 44.48828125 C23.49956525 44.58721453 18.0191823 44.6597799 12.53759766 44.70800781 C10.67324774 44.72811386 8.80896081 44.75540305 6.94482422 44.79003906 C4.26383927 44.83860246 1.58368852 44.86125963 -1.09765625 44.87890625 C-1.9300885 44.89955139 -2.76252075 44.92019653 -3.62017822 44.94146729 C-7.2413497 44.94286899 -9.40332825 44.8626793 -12.54174805 42.95581055 C-14.57748341 39.55664032 -14.61214163 36.46999306 -14.5859375 32.6171875 C-14.59213608 31.85784409 -14.59833466 31.09850067 -14.60472107 30.31614685 C-14.61181126 28.71330037 -14.60865905 27.11038012 -14.59594727 25.50756836 C-14.58209254 23.0616014 -14.6161414 20.6194713 -14.65429688 18.17382812 C-14.65524828 16.61328032 -14.65338812 15.05272774 -14.6484375 13.4921875 C-14.66169571 12.76495987 -14.67495392 12.03773224 -14.68861389 11.28846741 C-14.62177034 7.62211628 -14.0854869 5.58742664 -12.04394531 2.51855469 C-7.9140806 -0.25380202 -4.86331879 -0.15170952 0 0 Z " fill="#040404" transform="translate(1034.01953125,1194.51171875)"/>
<path d="M0 0 C0.721875 0.00257812 1.44375 0.00515625 2.1875 0.0078125 C2.909375 0.00523438 3.63125 0.00265625 4.375 0 C6.1875 0.1328125 6.1875 0.1328125 7.1875 1.1328125 C7.22346777 2.80955105 7.20032791 4.4876248 7.15234375 6.1640625 C6.43526601 18.02145689 6.43526601 18.02145689 10.3359375 28.76171875 C12.90215261 31.10592991 14.96428753 32.83065447 18.1875 34.1328125 C22.58181321 33.79478841 26.03041302 31.31399138 29.26171875 28.46875 C33.48269913 21.15695031 32.30388357 11.55604529 32.125 3.32250977 C32.1875 1.1328125 32.1875 1.1328125 33.1875 0.1328125 C35 0 35 0 37.1875 0.0078125 C37.909375 0.00523438 38.63125 0.00265625 39.375 0 C41.1875 0.1328125 41.1875 0.1328125 42.1875 1.1328125 C42.37789029 6.41334311 42.29089094 11.67949855 42.19384766 16.96142578 C42.15827953 19.27280115 42.15827953 19.27280115 42.41796875 22.12890625 C42.53795187 25.60841666 42.20847572 27.8777277 39.9609375 30.640625 C36.33437346 34.49036221 32.35922737 37.89152301 28.1875 41.1328125 C27.20136719 41.92945313 26.21523437 42.72609375 25.19921875 43.546875 C22.1875 45.1328125 22.1875 45.1328125 18.796875 45.28125 C13.98076034 43.74884988 11.09472051 41.15851453 7.4375 37.7578125 C6.77878906 37.16742187 6.12007812 36.57703125 5.44140625 35.96875 C3.67160084 34.37484817 1.91857286 32.76865004 0.1875 31.1328125 C-0.6478125 30.48505859 -0.6478125 30.48505859 -1.5 29.82421875 C-3.48158726 27.27056613 -3.16750902 25.15914186 -3.140625 21.96875 C-3.13546875 20.76476563 -3.1303125 19.56078125 -3.125 18.3203125 C-3.104375 17.0621875 -3.08375 15.8040625 -3.0625 14.5078125 C-3.05734375 13.24195313 -3.0521875 11.97609375 -3.046875 10.671875 C-2.95713089 0.21668632 -2.95713089 0.21668632 0 0 Z " fill="#111111" transform="translate(1382.8125,1386.8671875)"/>
<path d="M0 0 C2.97 0 5.94 0 9 0 C9 11.88 9 23.76 9 36 C22.2 36 35.4 36 49 36 C49 38.97 49 41.94 49 45 C42.96774061 45.09899561 36.93595573 45.17152907 30.90307617 45.21972656 C28.85156007 45.23982199 26.80010111 45.26710324 24.7487793 45.30175781 C21.79721975 45.35036669 18.84641852 45.37298952 15.89453125 45.390625 C14.97976517 45.41127014 14.06499908 45.43191528 13.12251282 45.45318604 C8.88117284 45.45467516 6.61945952 45.38502797 2.9440918 43.10058594 C-0.72160157 39.13981415 -0.12912609 35.41195512 -0.09765625 30.2734375 C-0.0962413 29.41062164 -0.09482635 28.54780579 -0.09336853 27.65884399 C-0.08776188 24.8975277 -0.07520827 22.13629188 -0.0625 19.375 C-0.05748586 17.5052095 -0.0529228 15.63541774 -0.04882812 13.765625 C-0.03779029 9.17705223 -0.0205212 4.58853977 0 0 Z " fill="#0A0A0A" transform="translate(771,1387)"/>
<path d="M0 0 C14.52 0 29.04 0 44 0 C44 2.97 44 5.94 44 9 C38.06 9 32.12 9 26 9 C26 20.88 26 32.76 26 45 C23.03 45 20.06 45 17 45 C17 33.12 17 21.24 17 9 C11.39 9 5.78 9 0 9 C0 6.03 0 3.06 0 0 Z " fill="#080808" transform="translate(897,1195)"/>
<path d="M0 0 C8.25 0 16.5 0 25 0 C25 8.58 25 17.16 25 26 C16.75 26 8.5 26 0 26 C0 17.42 0 8.84 0 0 Z " fill="#FCFCFC" transform="translate(537,1397)"/>
<path d="M0 0 C8.25 0 16.5 0 25 0 C25 2.64 25 5.28 25 8 C16.75 8 8.5 8 0 8 C0 5.36 0 2.72 0 0 Z " fill="#FFFFFF" transform="translate(1329,1397)"/>
<path d="M0 0 C5.61 0 11.22 0 17 0 C17 2.97 17 5.94 17 9 C11.39 9 5.78 9 0 9 C0 6.03 0 3.06 0 0 Z " fill="#F0F0F0" transform="translate(1109,1414)"/>
</svg>
